<?xml version="1.0" encoding="utf-8"?>
<!-- Generator: Adobe Illustrator 24.0.0, SVG Export Plug-In . SVG Version: 6.00 Build 0)  -->
<svg version="1.1" id="Ebene_1" xmlns="http://www.w3.org/2000/svg" xmlns:xlink="http://www.w3.org/1999/xlink" x="0px" y="0px"
	 viewBox="0 0 90.5 95" style="enable-background:new 0 0 90.5 95;" xml:space="preserve">
<style type="text/css">
	.st0{fill:url(#SVGID_1_);}
	.st1{fill:#FFFFFF;}
	.st2{fill-rule:evenodd;clip-rule:evenodd;fill:url(#SVGID_2_);}
</style>
<linearGradient id="SVGID_1_" gradientUnits="userSpaceOnUse" x1="10.3894" y1="17.5572" x2="44.3479" y2="37.1631" gradientTransform="matrix(1 0 0 -1 0 95.4646)">
	<stop  offset="0" style="stop-color:#38FFB7"/>
	<stop  offset="1" style="stop-color:#37DE84"/>
</linearGradient>
<path class="st0" d="M34.2,85.1c1.8,0,3.5-1,4.4-2.5l6.9-11.9c0.9-1.6,0.9-3.5,0-5.1l-6.9-11.9c-0.9-1.6-2.6-2.5-4.4-2.5H20.5
	c-1.8,0-3.5,1-4.4,2.5L9.2,65.6c-0.9,1.6-0.9,3.5,0,5.1l6.9,11.9c0.9,1.6,2.6,2.5,4.4,2.5H34.2z"/>
<path class="st1" d="M34.5,44.3c1.8,0,3.5-1,4.4-2.5l6.9-11.9c0.9-1.6,0.9-3.5,0-5.1l-6.9-11.9c-0.9-1.6-2.6-2.5-4.4-2.5H20.8
	c-1.8,0-3.5,1-4.4,2.5L9.5,24.8c-0.9,1.6-0.9,3.5,0,5.1l6.9,11.9c0.9,1.6,2.6,2.5,4.4,2.5H34.5z"/>
<linearGradient id="SVGID_2_" gradientUnits="userSpaceOnUse" x1="44.2593" y1="47.9829" x2="81.9008" y2="47.9829" gradientTransform="matrix(1 0 0 -1 0 95.4646)">
	<stop  offset="0" style="stop-color:#38FFB7"/>
	<stop  offset="1" style="stop-color:#37DE84"/>
</linearGradient>
<path class="st2" d="M74.3,61.9c-0.9,1.6-2.6,2.5-4.4,2.5H56.2c-1.8,0-3.5-1-4.4-2.5L44.9,50c-0.9-1.6-0.9-3.5,0-5.1L51.8,33
	c0.9-1.6,2.6-2.5,4.4-2.5H70c1.8,0,3.5,1,4.4,2.5l6.9,11.9c0.9,1.6,0.9,3.5,0,5.1L74.3,61.9z M70.3,57.1c-0.5,0.8-1.3,1.3-2.3,1.3
	h-9.9c-0.9,0-1.8-0.5-2.3-1.3l-4.9-8.6c-0.5-0.8-0.5-1.8,0-2.6l4.9-8.6c0.5-0.8,1.3-1.3,2.3-1.3H68c0.9,0,1.8,0.5,2.3,1.3l4.9,8.6
	c0.5,0.8,0.5,1.8,0,2.6L70.3,57.1z"/>
</svg>
